<svg width="7667" height="3334" viewBox="0 0 7667 3334" fill="none" xmlns="http://www.w3.org/2000/svg">
<rect width="7667" height="3334" fill="#2148C0"/>
<path d="M3933.73 2634C3175.53 2628.02 2565.98 2205.03 2572.25 1689.22C2578.52 1173.4 3198.25 760.101 3956.44 766.079C4714.64 772.057 5167.71 1173.4 5161.44 1689.22C5155.17 2205.03 4691.92 2639.98 3933.73 2634Z" fill="#264ECA"/>
<path d="M4399.49 1682.53C4399.49 2188.43 4063.2 2615 3860.1 2615C3657 2615 3335 2188.43 3335 1682.53C3335 1176.64 3657 783 3860.1 783C4063.2 783 4399.49 1176.64 4399.49 1682.53Z" fill="#244BC5" fill-opacity="0.780392"/>
<path d="M2823.53 640.139C3454.29 698.666 3883.33 237.766 4019 0L0 16.0035V3299H448.881C1838.79 3125.25 1604.81 2432.53 1314.08 2107.89C1144.3 1880.03 837.292 1331.03 967.537 957.922C1130.34 491.535 2035.08 566.98 2823.53 640.139Z" fill="#264ECA"/>
<path d="M4773.91 640.139C4127.62 698.666 3688.01 237.766 3549 0L7667 16.0035V3299H7207.06C5782.92 3125.25 6022.66 2432.53 6320.55 2107.88C6494.51 1880.03 6809.08 1331.03 6675.63 957.922C6508.81 491.535 5581.79 566.98 4773.91 640.139Z" fill="#264ECA"/>
</svg>
