<svg width="113" height="48" viewBox="0 0 113 48" fill="none" xmlns="http://www.w3.org/2000/svg">
<path d="M13.44 27.52C11.456 27.52 9.77067 27.1787 8.384 26.496C7.01867 25.792 5.97333 24.8 5.248 23.52C4.52267 22.2187 4.11733 20.6613 4.032 18.848C4.01067 17.9733 4 17.0347 4 16.032C4 15.0293 4.01067 14.0693 4.032 13.152C4.11733 11.36 4.52267 9.81333 5.248 8.512C5.99467 7.21066 7.05067 6.21866 8.416 5.536C9.80267 4.832 11.4773 4.48 13.44 4.48C14.8907 4.48 16.192 4.672 17.344 5.056C18.496 5.44 19.4773 5.97333 20.288 6.656C21.0987 7.31733 21.728 8.096 22.176 8.992C22.624 9.888 22.8587 10.8587 22.88 11.904C22.9013 12.096 22.8373 12.256 22.688 12.384C22.56 12.512 22.4 12.576 22.208 12.576H19.168C18.9333 12.576 18.7413 12.5227 18.592 12.416C18.4427 12.288 18.336 12.0853 18.272 11.808C17.9307 10.4 17.344 9.44 16.512 8.928C15.68 8.416 14.6453 8.16 13.408 8.16C11.9787 8.16 10.8373 8.56533 9.984 9.376C9.13067 10.1653 8.672 11.4773 8.608 13.312C8.544 15.0613 8.544 16.8533 8.608 18.688C8.672 20.5227 9.13067 21.8453 9.984 22.656C10.8373 23.4453 11.9787 23.84 13.408 23.84C14.6453 23.84 15.68 23.584 16.512 23.072C17.344 22.5387 17.9307 21.5787 18.272 20.192C18.336 19.8933 18.4427 19.6907 18.592 19.584C18.7413 19.4773 18.9333 19.424 19.168 19.424H22.208C22.4 19.424 22.56 19.488 22.688 19.616C22.8373 19.744 22.9013 19.904 22.88 20.096C22.8587 21.1413 22.624 22.112 22.176 23.008C21.728 23.904 21.0987 24.6933 20.288 25.376C19.4773 26.0373 18.496 26.56 17.344 26.944C16.192 27.328 14.8907 27.52 13.44 27.52Z" fill="black"/>
<path d="M34.451 27.52C32.467 27.52 30.803 27.232 29.459 26.656C28.1363 26.0587 27.123 25.2907 26.419 24.352C25.7363 23.392 25.3737 22.3893 25.331 21.344C25.331 21.152 25.395 20.992 25.523 20.864C25.651 20.736 25.811 20.672 26.003 20.672H28.851C29.1283 20.672 29.331 20.736 29.459 20.864C29.6083 20.9707 29.7363 21.1093 29.843 21.28C29.971 21.6853 30.2163 22.0907 30.579 22.496C30.9417 22.88 31.4323 23.2 32.051 23.456C32.691 23.712 33.491 23.84 34.451 23.84C35.987 23.84 37.1283 23.584 37.875 23.072C38.643 22.56 39.027 21.8667 39.027 20.992C39.027 20.3733 38.8243 19.8827 38.419 19.52C38.0137 19.136 37.3843 18.7947 36.531 18.496C35.699 18.176 34.5897 17.8453 33.203 17.504C31.603 17.12 30.259 16.6613 29.171 16.128C28.1043 15.5733 27.2937 14.88 26.739 14.048C26.2057 13.216 25.939 12.16 25.939 10.88C25.939 9.64266 26.2697 8.544 26.931 7.584C27.6137 6.624 28.5737 5.86666 29.811 5.312C31.0697 4.75733 32.563 4.48 34.291 4.48C35.6777 4.48 36.9043 4.672 37.971 5.056C39.0377 5.41866 39.923 5.90933 40.627 6.528C41.331 7.12533 41.8643 7.776 42.227 8.48C42.611 9.16266 42.8137 9.83466 42.835 10.496C42.835 10.6667 42.771 10.8267 42.643 10.976C42.5363 11.104 42.3763 11.168 42.163 11.168H39.187C39.0163 11.168 38.8457 11.1253 38.675 11.04C38.5043 10.9547 38.3657 10.7947 38.259 10.56C38.131 9.89866 37.715 9.33333 37.011 8.864C36.307 8.39466 35.4003 8.16 34.291 8.16C33.139 8.16 32.211 8.37333 31.507 8.8C30.803 9.22666 30.451 9.888 30.451 10.784C30.451 11.3813 30.6217 11.8827 30.963 12.288C31.3257 12.672 31.891 13.0133 32.659 13.312C33.4483 13.6107 34.483 13.9307 35.763 14.272C37.5763 14.6773 39.059 15.1467 40.211 15.68C41.363 16.2133 42.2057 16.896 42.739 17.728C43.2723 18.5387 43.539 19.5733 43.539 20.832C43.539 22.24 43.155 23.4453 42.387 24.448C41.6403 25.4293 40.5843 26.1867 39.219 26.72C37.8537 27.2533 36.2643 27.52 34.451 27.52Z" fill="black"/>
<path d="M47.9743 27.2C47.7609 27.2 47.5796 27.1253 47.4302 26.976C47.2809 26.8267 47.2062 26.6453 47.2062 26.432V5.568C47.2062 5.35466 47.2809 5.17333 47.4302 5.024C47.5796 4.87466 47.7609 4.8 47.9743 4.8H50.9823C51.2169 4.8 51.3983 4.87466 51.5262 5.024C51.6756 5.17333 51.7503 5.35466 51.7503 5.568V26.432C51.7503 26.6453 51.6756 26.8267 51.5262 26.976C51.3983 27.1253 51.2169 27.2 50.9823 27.2H47.9743Z" fill="black"/>
<path d="M57.5368 27.2C57.3234 27.2 57.1421 27.1253 56.9927 26.976C56.8434 26.8267 56.7687 26.6453 56.7687 26.432V5.6C56.7687 5.36533 56.8434 5.17333 56.9927 5.024C57.1421 4.87466 57.3234 4.8 57.5368 4.8H65.8248C68.4061 4.8 70.4434 5.39733 71.9368 6.592C73.4301 7.78666 74.1768 9.52533 74.1768 11.808C74.1768 13.3867 73.7821 14.6987 72.9928 15.744C72.2248 16.7893 71.1901 17.5467 69.8887 18.016L74.5608 26.176C74.6248 26.304 74.6568 26.4213 74.6568 26.528C74.6568 26.72 74.5821 26.88 74.4328 27.008C74.3048 27.136 74.1554 27.2 73.9847 27.2H71.0728C70.7101 27.2 70.4328 27.104 70.2408 26.912C70.0488 26.72 69.8994 26.528 69.7927 26.336L65.6647 18.752H61.2168V26.432C61.2168 26.6453 61.1421 26.8267 60.9928 26.976C60.8648 27.1253 60.6834 27.2 60.4487 27.2H57.5368ZM61.2168 15.136H65.7288C67.0301 15.136 68.0007 14.848 68.6407 14.272C69.2807 13.6747 69.6008 12.8427 69.6008 11.776C69.6008 10.7093 69.2807 9.87733 68.6407 9.28C68.0221 8.66133 67.0514 8.352 65.7288 8.352H61.2168V15.136Z" fill="black"/>
<path d="M83.746 27.2C83.5327 27.2 83.3513 27.1253 83.202 26.976C83.0527 26.8267 82.978 26.6453 82.978 26.432V8.736H77.058C76.8447 8.736 76.6633 8.66133 76.514 8.512C76.3647 8.36266 76.29 8.18133 76.29 7.968V5.6C76.29 5.36533 76.3647 5.17333 76.514 5.024C76.6633 4.87466 76.8447 4.8 77.058 4.8H93.378C93.6127 4.8 93.8047 4.87466 93.954 5.024C94.1033 5.17333 94.178 5.36533 94.178 5.6V7.968C94.178 8.18133 94.1033 8.36266 93.954 8.512C93.8047 8.66133 93.6127 8.736 93.378 8.736H87.49V26.432C87.49 26.6453 87.4153 26.8267 87.266 26.976C87.1167 27.1253 86.9247 27.2 86.69 27.2H83.746Z" fill="black"/>
<path d="M100.658 27.52C99.3775 27.52 98.2788 27.3707 97.3615 27.072C96.4655 26.7733 95.7295 26.4 95.1535 25.952C94.5775 25.504 94.1508 25.056 93.8735 24.608C93.5962 24.16 93.4468 23.7867 93.4255 23.488C93.4042 23.2533 93.4682 23.072 93.6175 22.944C93.7882 22.7947 93.9695 22.72 94.1615 22.72H96.6895C96.7748 22.72 96.8495 22.7307 96.9135 22.752C96.9775 22.7733 97.0628 22.8373 97.1695 22.944C97.4468 23.1787 97.7348 23.424 98.0335 23.68C98.3535 23.936 98.7268 24.16 99.1535 24.352C99.5802 24.5227 100.114 24.608 100.754 24.608C101.586 24.608 102.279 24.448 102.834 24.128C103.41 23.7867 103.698 23.3067 103.698 22.688C103.698 22.24 103.569 21.8773 103.313 21.6C103.079 21.3227 102.631 21.0773 101.969 20.864C101.308 20.6293 100.37 20.384 99.1535 20.128C97.9588 19.8507 96.9668 19.4987 96.1775 19.072C95.3882 18.6453 94.8015 18.112 94.4175 17.472C94.0335 16.832 93.8415 16.0853 93.8415 15.232C93.8415 14.4 94.0868 13.6107 94.5775 12.864C95.0895 12.096 95.8362 11.4667 96.8175 10.976C97.8202 10.4853 99.0575 10.24 100.53 10.24C101.682 10.24 102.684 10.3893 103.537 10.688C104.391 10.9653 105.095 11.3173 105.649 11.744C106.225 12.1707 106.663 12.608 106.962 13.056C107.26 13.4827 107.42 13.856 107.441 14.176C107.463 14.4107 107.399 14.6027 107.249 14.752C107.1 14.88 106.93 14.944 106.738 14.944H104.369C104.263 14.944 104.167 14.9227 104.081 14.88C103.996 14.8373 103.911 14.784 103.826 14.72C103.591 14.5067 103.335 14.2827 103.058 14.048C102.78 13.8133 102.439 13.6107 102.034 13.44C101.649 13.248 101.137 13.152 100.497 13.152C99.6868 13.152 99.0682 13.3333 98.6415 13.696C98.2148 14.0373 98.0015 14.4747 98.0015 15.008C98.0015 15.3707 98.0975 15.6907 98.2895 15.968C98.5028 16.224 98.9188 16.4693 99.5375 16.704C100.156 16.9387 101.095 17.184 102.354 17.44C103.783 17.696 104.913 18.08 105.745 18.592C106.599 19.0827 107.196 19.6587 107.537 20.32C107.9 20.96 108.081 21.6747 108.081 22.464C108.081 23.424 107.794 24.288 107.217 25.056C106.663 25.824 105.831 26.432 104.721 26.88C103.633 27.3067 102.279 27.52 100.658 27.52Z" fill="black"/>
<rect x="5.04074" y="36.52" width="12" height="2" fill="#F1C14A"/>
<path d="M22.1407 40.52C22.0674 40.52 22.0107 40.5 21.9707 40.46C21.9307 40.4133 21.9107 40.3567 21.9107 40.29V33.75C21.9107 33.6833 21.9307 33.63 21.9707 33.59C22.0107 33.5433 22.0674 33.52 22.1407 33.52H22.6707C22.7374 33.52 22.7907 33.5433 22.8307 33.59C22.8774 33.63 22.9007 33.6833 22.9007 33.75V40.29C22.9007 40.3567 22.8774 40.4133 22.8307 40.46C22.7907 40.5 22.7374 40.52 22.6707 40.52H22.1407ZM24.8751 40.52C24.8018 40.52 24.7451 40.5 24.7051 40.46C24.6651 40.4133 24.6451 40.3567 24.6451 40.29V33.76C24.6451 33.6867 24.6651 33.63 24.7051 33.59C24.7451 33.5433 24.8018 33.52 24.8751 33.52H25.3351C25.4151 33.52 25.4751 33.54 25.5151 33.58C25.5551 33.6133 25.5784 33.64 25.5851 33.66L28.9051 38.76V33.76C28.9051 33.6867 28.9251 33.63 28.9651 33.59C29.0051 33.5433 29.0618 33.52 29.1351 33.52H29.6151C29.6884 33.52 29.7451 33.5433 29.7851 33.59C29.8318 33.63 29.8551 33.6867 29.8551 33.76V40.28C29.8551 40.3467 29.8318 40.4033 29.7851 40.45C29.7451 40.4967 29.6918 40.52 29.6251 40.52H29.1451C29.0718 40.52 29.0151 40.5 28.9751 40.46C28.9418 40.42 28.9184 40.3933 28.9051 40.38L25.5951 35.33V40.29C25.5951 40.3567 25.5718 40.4133 25.5251 40.46C25.4851 40.5 25.4284 40.52 25.3551 40.52H24.8751ZM33.3485 40.52C33.2818 40.52 33.2251 40.5 33.1785 40.46C33.1385 40.4133 33.1185 40.3567 33.1185 40.29V34.41H31.1985C31.1318 34.41 31.0751 34.39 31.0285 34.35C30.9885 34.3033 30.9685 34.2467 30.9685 34.18V33.76C30.9685 33.6867 30.9885 33.63 31.0285 33.59C31.0751 33.5433 31.1318 33.52 31.1985 33.52H36.0185C36.0918 33.52 36.1485 33.5433 36.1885 33.59C36.2351 33.63 36.2585 33.6867 36.2585 33.76V34.18C36.2585 34.2467 36.2351 34.3033 36.1885 34.35C36.1485 34.39 36.0918 34.41 36.0185 34.41H34.1085V40.29C34.1085 40.3567 34.0851 40.4133 34.0385 40.46C33.9985 40.5 33.9418 40.52 33.8685 40.52H33.3485ZM37.6095 40.52C37.5362 40.52 37.4795 40.5 37.4395 40.46C37.3995 40.4133 37.3795 40.3567 37.3795 40.29V33.76C37.3795 33.6867 37.3995 33.63 37.4395 33.59C37.4795 33.5433 37.5362 33.52 37.6095 33.52H41.7395C41.8128 33.52 41.8695 33.5433 41.9095 33.59C41.9495 33.63 41.9695 33.6867 41.9695 33.76V34.14C41.9695 34.2133 41.9495 34.27 41.9095 34.31C41.8695 34.35 41.8128 34.37 41.7395 34.37H38.3395V36.56H41.5195C41.5928 36.56 41.6495 36.5833 41.6895 36.63C41.7295 36.67 41.7495 36.7267 41.7495 36.8V37.17C41.7495 37.2367 41.7295 37.2933 41.6895 37.34C41.6495 37.38 41.5928 37.4 41.5195 37.4H38.3395V39.67H41.8195C41.8928 39.67 41.9495 39.69 41.9895 39.73C42.0295 39.77 42.0495 39.8267 42.0495 39.9V40.29C42.0495 40.3567 42.0295 40.4133 41.9895 40.46C41.9495 40.5 41.8928 40.52 41.8195 40.52H37.6095ZM43.6739 40.52C43.6006 40.52 43.5439 40.5 43.5039 40.46C43.4639 40.4133 43.4439 40.3567 43.4439 40.29V33.76C43.4439 33.6867 43.4639 33.63 43.5039 33.59C43.5439 33.5433 43.6006 33.52 43.6739 33.52H46.1139C46.8673 33.52 47.4639 33.6967 47.9039 34.05C48.3439 34.4033 48.5639 34.9267 48.5639 35.62C48.5639 36.1333 48.4339 36.5533 48.1739 36.88C47.9206 37.2 47.5739 37.4233 47.1339 37.55L48.6739 40.21C48.6939 40.25 48.7039 40.2867 48.7039 40.32C48.7039 40.3733 48.6806 40.42 48.6339 40.46C48.5939 40.5 48.5473 40.52 48.4939 40.52H48.0139C47.9006 40.52 47.8173 40.49 47.7639 40.43C47.7106 40.37 47.6639 40.31 47.6239 40.25L46.1739 37.71H44.4239V40.29C44.4239 40.3567 44.4006 40.4133 44.3539 40.46C44.3139 40.5 44.2573 40.52 44.1839 40.52H43.6739ZM44.4239 36.86H46.0739C46.5739 36.86 46.9473 36.7567 47.1939 36.55C47.4406 36.3367 47.5639 36.0233 47.5639 35.61C47.5639 35.2033 47.4406 34.8933 47.1939 34.68C46.9539 34.4667 46.5806 34.36 46.0739 34.36H44.4239V36.86ZM49.5267 40.52C49.4733 40.52 49.4267 40.5 49.3867 40.46C49.3467 40.42 49.3267 40.3733 49.3267 40.32C49.3267 40.2867 49.33 40.25 49.3367 40.21L51.8167 33.74C51.8433 33.6733 51.88 33.62 51.9267 33.58C51.9733 33.54 52.0433 33.52 52.1367 33.52H52.8167C52.9033 33.52 52.97 33.54 53.0167 33.58C53.07 33.62 53.11 33.6733 53.1367 33.74L55.6067 40.21C55.62 40.25 55.6267 40.2867 55.6267 40.32C55.6267 40.3733 55.6067 40.42 55.5667 40.46C55.5267 40.5 55.48 40.52 55.4267 40.52H54.9167C54.8367 40.52 54.7767 40.5 54.7367 40.46C54.7033 40.42 54.68 40.3833 54.6667 40.35L54.1167 38.93H50.8367L50.2867 40.35C50.28 40.3833 50.2567 40.42 50.2167 40.46C50.1767 40.5 50.1167 40.52 50.0367 40.52H49.5267ZM51.1267 38.07H53.8267L52.4767 34.52L51.1267 38.07ZM59.0889 40.62C58.4756 40.62 57.9656 40.5067 57.5589 40.28C57.1589 40.0533 56.8556 39.7367 56.6489 39.33C56.4423 38.9233 56.3289 38.45 56.3089 37.91C56.3023 37.6367 56.2989 37.3433 56.2989 37.03C56.2989 36.7167 56.3023 36.4167 56.3089 36.13C56.3289 35.59 56.4423 35.1167 56.6489 34.71C56.8556 34.3033 57.1589 33.9867 57.5589 33.76C57.9656 33.5333 58.4756 33.42 59.0889 33.42C59.5489 33.42 59.9523 33.4833 60.2989 33.61C60.6456 33.7367 60.9323 33.9067 61.1589 34.12C61.3923 34.3333 61.5689 34.5733 61.6889 34.84C61.8089 35.1 61.8756 35.37 61.8889 35.65C61.8956 35.71 61.8756 35.76 61.8289 35.8C61.7889 35.84 61.7389 35.86 61.6789 35.86H61.1289C61.0689 35.86 61.0156 35.8433 60.9689 35.81C60.9289 35.7767 60.8989 35.7167 60.8789 35.63C60.7656 35.11 60.5523 34.7533 60.2389 34.56C59.9323 34.3667 59.5456 34.27 59.0789 34.27C58.5456 34.27 58.1223 34.4233 57.8089 34.73C57.4956 35.03 57.3256 35.5133 57.2989 36.18C57.2789 36.7267 57.2789 37.2867 57.2989 37.86C57.3256 38.5267 57.4956 39.0133 57.8089 39.32C58.1223 39.62 58.5456 39.77 59.0789 39.77C59.5456 39.77 59.9323 39.6733 60.2389 39.48C60.5523 39.2867 60.7656 38.93 60.8789 38.41C60.8989 38.3233 60.9289 38.2633 60.9689 38.23C61.0156 38.1967 61.0689 38.18 61.1289 38.18H61.6789C61.7389 38.18 61.7889 38.2 61.8289 38.24C61.8756 38.28 61.8956 38.33 61.8889 38.39C61.8756 38.67 61.8089 38.9433 61.6889 39.21C61.5689 39.47 61.3923 39.7067 61.1589 39.92C60.9323 40.1333 60.6456 40.3033 60.2989 40.43C59.9523 40.5567 59.5489 40.62 59.0889 40.62ZM64.9891 40.52C64.9224 40.52 64.8658 40.5 64.8191 40.46C64.7791 40.4133 64.7591 40.3567 64.7591 40.29V34.41H62.8391C62.7724 34.41 62.7158 34.39 62.6691 34.35C62.6291 34.3033 62.6091 34.2467 62.6091 34.18V33.76C62.6091 33.6867 62.6291 33.63 62.6691 33.59C62.7158 33.5433 62.7724 33.52 62.8391 33.52H67.6591C67.7324 33.52 67.7891 33.5433 67.8291 33.59C67.8758 33.63 67.8991 33.6867 67.8991 33.76V34.18C67.8991 34.2467 67.8758 34.3033 67.8291 34.35C67.7891 34.39 67.7324 34.41 67.6591 34.41H65.7491V40.29C65.7491 40.3567 65.7258 40.4133 65.6791 40.46C65.6391 40.5 65.5824 40.52 65.5091 40.52H64.9891ZM69.2501 40.52C69.1768 40.52 69.1201 40.5 69.0801 40.46C69.0401 40.4133 69.0201 40.3567 69.0201 40.29V33.75C69.0201 33.6833 69.0401 33.63 69.0801 33.59C69.1201 33.5433 69.1768 33.52 69.2501 33.52H69.7801C69.8468 33.52 69.9001 33.5433 69.9401 33.59C69.9868 33.63 70.0101 33.6833 70.0101 33.75V40.29C70.0101 40.3567 69.9868 40.4133 69.9401 40.46C69.9001 40.5 69.8468 40.52 69.7801 40.52H69.2501ZM73.8345 40.52C73.7345 40.52 73.6545 40.4967 73.5945 40.45C73.5412 40.4033 73.4978 40.34 73.4645 40.26L71.2345 33.83C71.2212 33.79 71.2145 33.7533 71.2145 33.72C71.2145 33.6667 71.2345 33.62 71.2745 33.58C71.3145 33.54 71.3612 33.52 71.4145 33.52H71.9345C72.0145 33.52 72.0745 33.5433 72.1145 33.59C72.1612 33.63 72.1878 33.6667 72.1945 33.7L74.1545 39.37L76.1145 33.7C76.1278 33.6667 76.1545 33.63 76.1945 33.59C76.2345 33.5433 76.2945 33.52 76.3745 33.52H76.8945C76.9478 33.52 76.9945 33.54 77.0345 33.58C77.0812 33.62 77.1045 33.6667 77.1045 33.72C77.1045 33.7533 77.0978 33.79 77.0845 33.83L74.8445 40.26C74.8178 40.34 74.7745 40.4033 74.7145 40.45C74.6612 40.4967 74.5845 40.52 74.4845 40.52H73.8345ZM78.5275 40.52C78.4541 40.52 78.3975 40.5 78.3575 40.46C78.3175 40.4133 78.2975 40.3567 78.2975 40.29V33.76C78.2975 33.6867 78.3175 33.63 78.3575 33.59C78.3975 33.5433 78.4541 33.52 78.5275 33.52H82.6575C82.7308 33.52 82.7875 33.5433 82.8275 33.59C82.8675 33.63 82.8875 33.6867 82.8875 33.76V34.14C82.8875 34.2133 82.8675 34.27 82.8275 34.31C82.7875 34.35 82.7308 34.37 82.6575 34.37H79.2575V36.56H82.4375C82.5108 36.56 82.5675 36.5833 82.6075 36.63C82.6475 36.67 82.6675 36.7267 82.6675 36.8V37.17C82.6675 37.2367 82.6475 37.2933 82.6075 37.34C82.5675 37.38 82.5108 37.4 82.4375 37.4H79.2575V39.67H82.7375C82.8108 39.67 82.8675 39.69 82.9075 39.73C82.9475 39.77 82.9675 39.8267 82.9675 39.9V40.29C82.9675 40.3567 82.9475 40.4133 82.9075 40.46C82.8675 40.5 82.8108 40.52 82.7375 40.52H78.5275ZM87.0431 40.52C86.9764 40.52 86.9198 40.5 86.8731 40.46C86.8331 40.4133 86.8131 40.3567 86.8131 40.29V33.76C86.8131 33.6867 86.8331 33.63 86.8731 33.59C86.9198 33.5433 86.9764 33.52 87.0431 33.52H87.5431C87.6231 33.52 87.6831 33.54 87.7231 33.58C87.7631 33.62 87.7864 33.6533 87.7931 33.68L89.9131 37.72L92.0431 33.68C92.0564 33.6533 92.0798 33.62 92.1131 33.58C92.1531 33.54 92.2131 33.52 92.2931 33.52H92.7831C92.8564 33.52 92.9131 33.5433 92.9531 33.59C92.9998 33.63 93.0231 33.6867 93.0231 33.76V40.29C93.0231 40.3567 92.9998 40.4133 92.9531 40.46C92.9131 40.5 92.8564 40.52 92.7831 40.52H92.2931C92.2264 40.52 92.1698 40.5 92.1231 40.46C92.0831 40.4133 92.0631 40.3567 92.0631 40.29V35.37L90.3931 38.63C90.3664 38.6967 90.3264 38.75 90.2731 38.79C90.2198 38.8233 90.1531 38.84 90.0731 38.84H89.7631C89.6764 38.84 89.6064 38.8233 89.5531 38.79C89.5064 38.75 89.4664 38.6967 89.4331 38.63L87.7631 35.37V40.29C87.7631 40.3567 87.7398 40.4133 87.6931 40.46C87.6531 40.5 87.5998 40.52 87.5331 40.52H87.0431ZM94.2825 40.52C94.2292 40.52 94.1825 40.5 94.1425 40.46C94.1025 40.42 94.0825 40.3733 94.0825 40.32C94.0825 40.2867 94.0859 40.25 94.0925 40.21L96.5725 33.74C96.5992 33.6733 96.6359 33.62 96.6825 33.58C96.7292 33.54 96.7992 33.52 96.8925 33.52H97.5725C97.6592 33.52 97.7259 33.54 97.7725 33.58C97.8259 33.62 97.8659 33.6733 97.8925 33.74L100.363 40.21C100.376 40.25 100.383 40.2867 100.383 40.32C100.383 40.3733 100.363 40.42 100.323 40.46C100.283 40.5 100.236 40.52 100.183 40.52H99.6725C99.5925 40.52 99.5325 40.5 99.4925 40.46C99.4592 40.42 99.4359 40.3833 99.4225 40.35L98.8725 38.93H95.5925L95.0425 40.35C95.0359 40.3833 95.0125 40.42 94.9725 40.46C94.9325 40.5 94.8725 40.52 94.7925 40.52H94.2825ZM95.8825 38.07H98.5825L97.2325 34.52L95.8825 38.07ZM101.682 40.52C101.608 40.52 101.552 40.5 101.512 40.46C101.472 40.4133 101.452 40.3567 101.452 40.29V33.76C101.452 33.6867 101.472 33.63 101.512 33.59C101.552 33.5433 101.608 33.52 101.682 33.52H104.222C104.715 33.52 105.142 33.6 105.502 33.76C105.868 33.92 106.152 34.16 106.352 34.48C106.552 34.7933 106.652 35.1867 106.652 35.66C106.652 36.1333 106.552 36.5267 106.352 36.84C106.152 37.1533 105.868 37.39 105.502 37.55C105.142 37.71 104.715 37.79 104.222 37.79H102.452V40.29C102.452 40.3567 102.428 40.4133 102.382 40.46C102.342 40.5 102.285 40.52 102.212 40.52H101.682ZM102.442 36.95H104.172C104.665 36.95 105.035 36.84 105.282 36.62C105.528 36.4 105.652 36.08 105.652 35.66C105.652 35.2467 105.532 34.9267 105.292 34.7C105.052 34.4733 104.678 34.36 104.172 34.36H102.442V36.95Z" fill="black"/>
</svg>
