<svg width="14" height="15" viewBox="0 0 14 15" fill="none" xmlns="http://www.w3.org/2000/svg">
<g clip-path="url(#clip0_25_1578)">
<path d="M11.5669 8.51804C11.2415 8.51804 10.9766 8.7824 10.9766 9.10775V13.0749C10.9766 13.4801 10.6472 13.81 10.242 13.81H1.93319C1.52826 13.81 1.19858 13.4802 1.19858 13.0749V4.76661C1.19858 4.36154 1.52826 4.03199 1.93319 4.03199H5.90058C6.22593 4.03199 6.49043 3.76735 6.49043 3.442C6.49043 3.11694 6.22579 2.85229 5.90058 2.85229H1.93319C1.42279 2.85229 0.942187 3.05162 0.580193 3.41375C0.218338 3.7756 0.0187378 4.25607 0.0187378 4.76661V13.0749C0.0187378 14.1306 0.877565 14.9895 1.93319 14.9895H10.242C11.2976 14.9895 12.1565 14.1306 12.1565 13.0749V9.10775C12.1563 8.7824 11.8922 8.51804 11.5669 8.51804Z" fill="#010101"/>
<path d="M12.0689 0.989502H8.20837C7.88414 0.989502 7.62062 1.25316 7.62062 1.57739C7.62062 1.90148 7.88414 2.16528 8.20837 2.16528H11.9704L5.20331 8.93169C5.09225 9.04317 5.03113 9.1906 5.03113 9.34712C5.03113 9.50462 5.09239 9.65233 5.20331 9.76339C5.42473 9.98467 5.81246 9.98509 6.03472 9.76339L12.8013 2.9967V6.75791C12.8013 7.082 13.0645 7.34552 13.3887 7.34552C13.7128 7.34552 13.9765 7.082 13.9765 6.75791V2.89739C13.9768 1.84525 13.1207 0.989502 12.0689 0.989502Z" fill="#010101"/>
</g>
<defs>
<clipPath id="clip0_25_1578">
<rect width="14" height="15" fill="white"/>
</clipPath>
</defs>
</svg>
