<svg width="64" height="64" viewBox="0 0 64 64" fill="none" xmlns="http://www.w3.org/2000/svg">
<path d="M43.9999 12.005C40.4279 10.782 37.5399 9.18501 35.3489 7.71601C33.9239 6.76101 32.0769 6.76101 30.6519 7.71601C28.4599 9.18501 25.5729 10.782 21.9999 12.005C18.1109 13.336 14.5999 13.816 11.8869 13.956C10.8219 14.011 9.99894 14.891 10.0029 15.957C10.0409 26.628 10.6989 39.701 21.9999 51.001C23.6589 52.66 27.9609 56.081 30.6669 58.194C32.0389 59.265 33.9599 59.265 35.3319 58.194C38.0379 56.081 42.3399 52.66 43.9989 51.001C55.2999 39.701 55.9579 26.628 55.9969 15.956C56.0009 14.89 55.1769 14.01 54.1129 13.955C51.3999 13.815 47.8889 13.336 43.9999 12.005Z" fill="#8C5E14"/>
<path d="M42.9999 11.005C39.4279 9.78201 36.5399 8.18501 34.3489 6.71601C32.9239 5.76101 31.0769 5.76101 29.6519 6.71601C27.4599 8.18501 24.5729 9.78201 20.9999 11.005C17.1109 12.336 13.5999 12.816 10.8869 12.956C9.82194 13.011 8.99894 13.891 9.00294 14.957C9.04094 25.628 9.69894 38.701 20.9999 50.001C22.6589 51.66 26.9609 55.081 29.6669 57.194C31.0389 58.265 32.9599 58.265 34.3319 57.194C37.0379 55.081 41.3399 51.66 42.9989 50.001C54.2999 38.701 54.9579 25.628 54.9969 14.956C55.0009 13.89 54.1769 13.01 53.1129 12.955C50.3999 12.815 46.8889 12.336 42.9999 11.005Z" fill="url(#paint0_linear_5_2457)"/>
<path fill-rule="evenodd" clip-rule="evenodd" d="M32 20C35.3 20 38 22.7992 38 26.1992V28H39.0996C40.1996 28 41 28.9004 41 29.9004V40.0996C41 41.0996 40.0996 42 39.0996 42H24.9004C23.8004 42 23 41.1 23 40V29.9004C23 28.9004 23.8004 28 24.9004 28H26V26.1992C26 22.7992 28.7 20 32 20ZM28 26.1992C28 23.8992 29.8 22 32 22C34.2 22 36 23.8992 36 26.1992V28H28V26.1992ZM30.5996 34.4004C30.5996 33.6004 31.2 33 32 33C32.8 33 33.4004 33.6004 33.4004 34.4004C33.4004 34.8004 33.2004 35.1004 32.9004 35.4004V36.6992C32.9004 37.1992 32.5 37.5996 32 37.5996C31.5 37.5996 31.0996 37.1992 31.0996 36.6992V35.4004C30.7996 35.1004 30.5996 34.8004 30.5996 34.4004Z" fill="white"/>
<defs>
<linearGradient id="paint0_linear_5_2457" x1="31.9999" y1="57.998" x2="31.9999" y2="-10.231" gradientUnits="userSpaceOnUse">
<stop stop-color="#B37819"/>
<stop offset="1" stop-color="#FFC05B"/>
</linearGradient>
</defs>
</svg>
