<svg width="1691" height="712" viewBox="0 0 1691 712" fill="none" xmlns="http://www.w3.org/2000/svg">
<g clip-path="url(#clip0_1_2)">
<rect width="1691" height="712" fill="#825B32"/>
<path d="M473.745 721C473.745 920.927 286.657 1083 55.8724 1083C-174.912 1083 -362 920.927 -362 721C-362 521.073 -174.912 359 55.8724 359C286.657 359 473.745 521.073 473.745 721Z" fill="#F7EED3"/>
<path d="M473.745 721C473.745 920.927 286.657 1083 55.8724 1083C-174.912 1083 -362 920.927 -362 721C-362 521.073 -174.912 359 55.8724 359C286.657 359 473.745 521.073 473.745 721Z" stroke="black"/>
<path d="M386.015 721C386.015 878.953 238.205 1007 55.8723 1007C-126.46 1007 -274.27 878.953 -274.27 721C-274.27 563.047 -126.46 435 55.8723 435C238.205 435 386.015 563.047 386.015 721Z" fill="#F7EED3"/>
<path d="M386.015 721C386.015 878.953 238.205 1007 55.8723 1007C-126.46 1007 -274.27 878.953 -274.27 721C-274.27 563.047 -126.46 435 55.8723 435C238.205 435 386.015 563.047 386.015 721Z" stroke="black"/>
<path d="M308.674 721C308.674 841.95 195.491 940 55.8724 940C-83.7459 940 -196.929 841.95 -196.929 721C-196.929 600.05 -83.7459 502 55.8724 502C195.491 502 308.674 600.05 308.674 721Z" fill="#F7EED3"/>
<path d="M308.674 721C308.674 841.95 195.491 940 55.8724 940C-83.7459 940 -196.929 841.95 -196.929 721C-196.929 600.05 -83.7459 502 55.8724 502C195.491 502 308.674 600.05 308.674 721Z" stroke="black"/>
<path d="M990.561 140.097C834.088 152.906 727.656 52.036 694 0L1691 3.50243V722H1579.65C1234.85 683.974 1292.89 532.369 1365.01 461.319C1407.13 411.452 1483.29 291.302 1450.98 209.645C1410.59 107.574 1186.15 124.086 990.561 140.097Z" fill="#F7EED3"/>
</g>
<defs>
<clipPath id="clip0_1_2">
<rect width="1691" height="712" fill="white"/>
</clipPath>
</defs>
</svg>
