<svg width="1691" height="742" viewBox="0 0 1691 742" fill="none" xmlns="http://www.w3.org/2000/svg">
<g clip-path="url(#clip0_1_2)">
<rect width="1691" height="742" fill="#825B32"/>
<path d="M473.745 722.664C473.745 921.672 286.657 1083 55.8724 1083C-174.912 1083 -362 921.672 -362 722.664C-362 523.655 -174.912 362.327 55.8724 362.327C286.657 362.327 473.745 523.655 473.745 722.664Z" fill="#F7EED3"/>
<path d="M473.745 722.664C473.745 921.672 286.657 1083 55.8724 1083C-174.912 1083 -362 921.672 -362 722.664C-362 523.655 -174.912 362.327 55.8724 362.327C286.657 362.327 473.745 523.655 473.745 722.664Z" stroke="black"/>
<path d="M386.015 722.664C386.015 879.891 238.205 1007.35 55.8723 1007.35C-126.46 1007.35 -274.27 879.891 -274.27 722.664C-274.27 565.436 -126.46 437.978 55.8723 437.978C238.205 437.978 386.015 565.436 386.015 722.664Z" fill="#F7EED3"/>
<path d="M386.015 722.664C386.015 879.891 238.205 1007.35 55.8723 1007.35C-126.46 1007.35 -274.27 879.891 -274.27 722.664C-274.27 565.436 -126.46 437.978 55.8723 437.978C238.205 437.978 386.015 565.436 386.015 722.664Z" stroke="black"/>
<path d="M308.674 722.664C308.674 843.058 195.491 940.657 55.8724 940.657C-83.7459 940.657 -196.929 843.058 -196.929 722.664C-196.929 602.269 -83.7459 504.67 55.8724 504.67C195.491 504.67 308.674 602.269 308.674 722.664Z" fill="#F7EED3"/>
<path d="M308.674 722.664C308.674 843.058 195.491 940.657 55.8724 940.657C-83.7459 940.657 -196.929 843.058 -196.929 722.664C-196.929 602.269 -83.7459 504.67 55.8724 504.67C195.491 504.67 308.674 602.269 308.674 722.664Z" stroke="black"/>
<path d="M987.049 136.724C829.79 150.048 722.825 45.1261 689 -9L1691 -5.3569V742H1579.09C1232.56 702.446 1290.9 544.752 1363.38 470.849C1405.71 418.978 1482.25 294.002 1449.78 209.066C1409.19 102.895 1183.62 120.07 987.049 136.724Z" fill="#F7EED3"/>
</g>
<defs>
<clipPath id="clip0_1_2">
<rect width="1691" height="742" fill="white"/>
</clipPath>
</defs>
</svg>
